# xmcd CD database file
# Copyright (C) 1993-1998 Ti Kan
#
# Track frame offsets:
#	150
#	18342
#	34352
#	47702
#	63367
#	80040
#	94413
#	111606
#	124763
#	141528
#	156045
#	166553
#	182290
#	197935
#
# Disc length: 2810 seconds
#
# Revision: 1
# Processed by: cddbd v1.4b41PL1 Copyright (c) Steve Scherf et al.
# Submitted via: CDValet v3.31 - Copyright (c) 1997 Greg Leichner
#
DISCID=c40af80e
DTITLE=Various Artist - Hot Hits Country Vol. 70
DYEAR=1900
DGENRE=
TTITLE0=We Were In Love - Toby Keith
TTITLE1=How Do I Get There - Deana Carter
TTITLE2=All Lit Up In Love - David Lee Murphy
TTITLE3=Thank God For Believers - Mark Chesnutt
TTITLE4=Please - The Kinleys
TTITLE5=Watch This - Clay Walker
TTITLE6=You Can't Get There From Here - Lee Roy Parnell
TTITLE7=Nickajack - River Road
TTITLE8=I'm Your Man - Jason Sellers
TTITLE9=The Way She's Looking - Raybon Brothers
TTITLE10=Flutter - Jack Ingram
TTITLE11=Somebody Slap Me - John Anderson
TTITLE12=Nowhere USA - Dean Miller
TTITLE13=Warning Signs - Bill Engvall w/ John Michael Montgomery
EXTD=
EXTT0=
EXTT1=
EXTT2=
EXTT3=
EXTT4=
EXTT5=
EXTT6=
EXTT7=
EXTT8=
EXTT9=
EXTT10=
EXTT11=
EXTT12=
EXTT13=
PLAYORDER=
